<svg xmlns="http://www.w3.org/2000/svg" width="22.844" height="22.781" viewBox="0 0 22.844 22.781">
  <defs>
    <style>
      .cls-1 {
        fill: #8f8f8f;
        fill-rule: evenodd;
      }
    </style>
  </defs>
  <path id="close.svg" class="cls-1" d="M35.906,33.188s8,8.094,8.937,8.937,1.906,1.438,3.313.031c1.563-1.563,8.937-9.031,8.937-9.031l0.75,0.75-9,9c-1.062,1.063-1.187,2.062.031,3.25s9.031,9.063,9.031,9.063l-0.75.719s-8.276-8.286-9.031-9.063a1.991,1.991,0,0,0-3.25,0c-1.415,1.426-9.031,9.063-9.031,9.063l-0.781-.687s7.844-7.812,9.031-9.031,1.187-1.969,0-3.312c-1.012-1.146-8.875-9.031-8.875-9.031Z" transform="translate(-35.063 -33.125)"/>
</svg>
