<svg xmlns="http://www.w3.org/2000/svg" width="10.969" height="12" viewBox="0 0 10.969 12">
  <defs>
    <style>
      .cls-1 {
        fill: #9a9aa0;
        fill-rule: evenodd;
      }
    </style>
  </defs>
  <path id="plus.svg" class="cls-1" d="M294.983,96.026s0.032,2.942.032,3.952a1.017,1.017,0,0,0,.914,1.021c2.21,0,4.049,0,4.049,0v0.967h-4.009a1.026,1.026,0,0,0-1,1.039c0,1.7.009,4.013,0.009,4.013l-1.007.978s0.054-3.961.053-5.044a1.078,1.078,0,0,0-1.079-.986c-2.009,0-3.951.022-3.951,0.022l0-.975h3.991a0.979,0.979,0,0,0,1.029-1C294.016,98.48,294,96,294,96Z" transform="translate(-289 -96)"/>
</svg>
